<?xml version="1.0" standalone="no"?>
<!DOCTYPE svg PUBLIC "-//W3C//DTD SVG 20010904//EN"
 "http://www.w3.org/TR/2001/REC-SVG-20010904/DTD/svg10.dtd">
<svg version="1.0" xmlns="http://www.w3.org/2000/svg"
 width="380.000000pt" height="339.000000pt" viewBox="0 0 380.000000 339.000000"
 preserveAspectRatio="xMidYMid meet">

<g transform="translate(0.000000,339.000000) scale(0.100000,-0.100000)"
fill="#000000" stroke="none">
<path d="M1710 3083 c-46 -49 -93 -104 -105 -123 -12 -20 -38 -48 -58 -62 -39
-31 -247 -239 -247 -249 0 -3 -17 -21 -37 -41 -45 -41 -153 -164 -153 -173 0
-8 26 -35 34 -35 3 0 6 6 6 13 0 15 61 79 122 129 25 20 52 52 61 71 19 40 42
61 56 53 5 -4 13 4 17 16 15 51 48 109 66 119 18 10 18 9 -1 -30 -28 -53 -27
-68 2 -49 12 9 22 25 23 36 2 27 43 84 55 76 6 -3 36 19 67 48 56 53 57 55 37
71 -20 16 -20 16 10 41 20 17 38 24 52 21 16 -4 29 2 40 16 10 12 25 30 33 39
8 9 25 36 37 58 l21 42 -28 0 c-23 0 -45 -18 -110 -87z"/>
<path d="M1920 3164 c0 -13 66 -84 78 -84 17 0 102 -60 102 -72 0 -4 29 -31
65 -59 50 -39 64 -56 60 -70 -7 -22 59 -99 86 -99 22 0 86 -54 94 -81 4 -10
15 -19 26 -19 18 0 16 6 -17 45 -20 25 -41 45 -48 45 -16 1 -57 39 -86 80 -13
19 -89 99 -169 178 -101 99 -152 142 -168 142 -13 0 -23 -3 -23 -6z"/>
<path d="M2546 2540 c35 -35 44 -37 44 -9 0 14 -5 19 -14 16 -8 -3 -20 1 -26
9 -7 8 -17 14 -23 14 -6 0 3 -13 19 -30z"/>
<path d="M1023 2361 c-69 -70 -267 -259 -382 -364 -57 -53 -63 -62 -57 -89 5
-24 3 -29 -10 -24 -19 7 -29 0 -125 -99 -43 -44 -79 -88 -79 -98 0 -10 45 -64
101 -120 55 -55 109 -118 120 -139 11 -21 24 -38 29 -38 6 0 15 -10 21 -23 5
-12 27 -34 47 -47 20 -14 68 -56 107 -95 40 -38 110 -107 156 -152 46 -45 101
-100 122 -123 21 -23 75 -76 120 -118 45 -42 97 -95 116 -117 18 -22 82 -90
141 -152 77 -80 117 -114 141 -120 22 -6 39 -19 47 -37 8 -15 51 -67 96 -114
45 -48 95 -102 111 -119 15 -18 36 -33 45 -33 15 0 74 57 131 126 9 10 49 51
90 90 67 65 239 241 314 321 17 18 100 99 185 180 86 81 176 169 200 195 25
27 126 128 225 226 99 98 191 191 205 205 14 15 49 50 78 78 28 29 52 56 52
62 0 15 -51 -2 -84 -29 -62 -51 -485 -462 -605 -588 -69 -72 -168 -174 -221
-226 -52 -52 -103 -107 -112 -122 -10 -14 -36 -39 -60 -55 -23 -15 -54 -48
-68 -73 -14 -25 -37 -50 -51 -57 -45 -23 -121 -96 -135 -130 -8 -19 -26 -39
-42 -46 -15 -6 -45 -26 -66 -44 -22 -18 -42 -33 -45 -33 -4 0 -11 10 -16 22
-6 12 -50 58 -100 101 -49 44 -93 87 -97 96 -7 17 -27 36 -71 64 -15 9 -27 24
-27 31 0 7 -20 30 -45 50 -25 21 -45 41 -45 46 0 11 -37 55 -70 84 -13 11 -66
63 -117 113 -50 51 -95 93 -100 93 -4 0 -28 24 -53 52 -60 70 -107 116 -227
223 -56 50 -104 97 -107 105 -3 8 -21 29 -38 47 -18 17 -44 42 -58 56 -14 13
-45 46 -69 72 -24 27 -82 82 -130 123 -47 41 -87 78 -89 83 -2 4 7 15 20 25
36 29 108 124 115 152 4 16 8 20 13 11 16 -25 74 27 140 124 25 37 50 65 57
63 11 -5 154 131 262 249 31 33 58 59 61 58 3 -1 6 14 7 33 1 19 0 34 -2 34
-3 0 -35 -31 -72 -69z"/>
<path d="M1856 2209 c-16 -36 -36 -63 -49 -69 -12 -4 -92 -25 -177 -45 -85
-20 -200 -53 -255 -72 -55 -19 -117 -40 -137 -46 -44 -13 -49 -34 -15 -72 16
-19 35 -27 73 -32 53 -6 90 2 244 54 118 39 212 64 218 58 3 -2 -2 -22 -10
-42 -21 -51 -116 -289 -133 -333 -93 -236 -124 -335 -134 -433 -8 -66 6 -72
27 -11 37 105 65 170 101 229 54 89 127 217 152 264 16 30 35 61 43 70 24 27
72 132 100 216 l27 80 87 42 c111 54 278 112 385 134 26 5 66 18 90 28 l42 18
-75 -4 c-70 -4 -267 -30 -405 -53 -86 -14 -95 -13 -95 10 0 23 -42 70 -62 70
-8 0 -26 -27 -42 -61z"/>
</g>
</svg>
